<svg xmlns="http://www.w3.org/2000/svg" viewBox="0 0 24 24" fill="none" stroke="currentColor" stroke-width="1.5" stroke-linecap="round" stroke-linejoin="round">
  <path d="M12 2v20"/>
  <path d="M12 5c-2 0-4 1-5 3"/>
  <path d="M12 5c2 0 4 1 5 3"/>
  <path d="M12 9c-3 0-6 1-8 3"/>
  <path d="M12 9c3 0 6 1 8 3"/>
  <path d="M12 13c-4 0-7 2-9 4"/>
  <path d="M12 13c4 0 7 2 9 4"/>
  <circle cx="12" cy="22" r="1.2"/>
  <circle cx="3" cy="17" r="1"/>
  <circle cx="21" cy="17" r="1"/>
  <circle cx="4" cy="12" r="0.8"/>
  <circle cx="20" cy="12" r="0.8"/>
</svg>
