<svg xmlns="http://www.w3.org/2000/svg" viewBox="0 0 24 24" fill="none" stroke="currentColor" stroke-width="1.5" stroke-linecap="round" stroke-linejoin="round">
  <path d="M12 2v20"/>
  <path d="M12 4c-1.5 0-3 1-3.5 2.5"/>
  <path d="M12 4c1.5 0 3 1 3.5 2.5"/>
  <path d="M12 7.5c-2 0-4 1-5 3"/>
  <path d="M12 7.5c2 0 4 1 5 3"/>
  <path d="M12 11.5c-3 0-5.5 1-7 3"/>
  <path d="M12 11.5c3 0 5.5 1 7 3"/>
  <path d="M12 15.5c-4 0-7 2-9 4"/>
  <path d="M12 15.5c4 0 7 2 9 4"/>
  <circle cx="8.5" cy="6.5" r="0.7"/>
  <circle cx="15.5" cy="6.5" r="0.7"/>
  <circle cx="7" cy="10.5" r="0.85"/>
  <circle cx="17" cy="10.5" r="0.85"/>
  <circle cx="5" cy="14.5" r="1"/>
  <circle cx="19" cy="14.5" r="1"/>
  <circle cx="3" cy="19.5" r="1.1"/>
  <circle cx="21" cy="19.5" r="1.1"/>
  <circle cx="12" cy="22" r="1.2"/>
</svg>
