<svg xmlns="http://www.w3.org/2000/svg" viewBox="0 0 24 24" fill="none" stroke="currentColor" stroke-width="1.5" stroke-linecap="round" stroke-linejoin="round">
  <path d="M12 2v20"/>
  <path d="M12 5c-2 0-3.5 1.2-5 3"/>
  <path d="M12 6c2 -0.2 4.2 1 5 3"/>
  <path d="M12 10c-3 0-5.5 1.3-7.5 3.2"/>
  <path d="M12 10c2.8 0.3 5.5 1.3 7 3.5"/>
  <path d="M12 14c-3.5 0-6.5 2-8.5 4.2"/>
  <path d="M12 14c3.5 0.2 6.8 2 8.5 4"/>
  <circle cx="6.8" cy="8.2" r="0.7"/>
  <circle cx="17.2" cy="9.2" r="0.7"/>
  <circle cx="4.5" cy="13.2" r="0.9"/>
  <circle cx="19.2" cy="13.7" r="0.9"/>
  <circle cx="3.5" cy="18.2" r="1.1"/>
  <circle cx="20.5" cy="18.2" r="1.1"/>
  <circle cx="12" cy="22" r="1.2"/>
</svg>
