<svg xmlns="http://www.w3.org/2000/svg" viewBox="0 0 24 24" fill="none" stroke="currentColor" stroke-width="1.5" stroke-linecap="round" stroke-linejoin="round">
  <path d="M12 3v17"/>
  <path d="M12 5c-2 0-4 1-5 3"/>
  <path d="M12 5c2 0 4 1 5 3"/>
  <path d="M12 9c-3 0-5.5 1.5-7 3.5"/>
  <path d="M12 9c3 0 5.5 1.5 7 3.5"/>
  <circle cx="12" cy="3" r="1"/>
  <circle cx="7" cy="8" r="0.9"/>
  <circle cx="17" cy="8" r="0.9"/>
  <circle cx="5" cy="12.5" r="1"/>
  <circle cx="19" cy="12.5" r="1"/>
  <path d="M12 20c-2 0-4 0.5-5 2"/>
  <path d="M12 20c2 0 4 0.5 5 2"/>
  <circle cx="7" cy="22" r="0.9"/>
  <circle cx="17" cy="22" r="0.9"/>
</svg>
